# xmcd
#
# Track frame offsets: 
#        150
#        15325
#        34481
#        55687
#        74602
#        96570
#        121623
#        143435
#        162084
#        174448
#        193330
#        222758
#
# Disc length: 4440 seconds
#
# Revision: 5
# Processed by: cddbd v1.5.2PL0 Copyright (c) Steve Scherf et al.
# Submitted via: ExactAudioCopyFreeDBPlugin 1.0
#
DISCID=a311560c
DTITLE=Doves - Some Cities
DYEAR=2005
DGENRE=Rock
TTITLE0=Some Cities
TTITLE1=Black and White Town
TTITLE2=Almost Forgot Myself
TTITLE3=Snowden
TTITLE4=The Storm
TTITLE5=Walk in the Fire
TTITLE6=One of These Days
TTITLE7=Someday Soon
TTITLE8=Shadows of Salford
TTITLE9=Sky Starts Falling
TTITLE10=Ambition
TTITLE11=Data
EXTD=YEAR: 2005
EXTT0=
EXTT1=
EXTT2=
EXTT3=
EXTT4=
EXTT5=
EXTT6=
EXTT7=
EXTT8=
EXTT9=
EXTT10=
EXTT11=
PLAYORDER=
